<svg width="16" height="19" viewBox="0 0 16 19" fill="none" xmlns="http://www.w3.org/2000/svg">
  <path fill-rule="evenodd" clip-rule="evenodd" d="M4.16445 7.1001H11.8353C12.3651 7.10008 12.8163 7.10007 13.1867 7.13034C13.5759 7.16213 13.9545 7.23177 14.3164 7.41618C14.8621 7.69421 15.3057 8.13786 15.5838 8.68353C15.7682 9.04546 15.8378 9.42405 15.8696 9.81321C15.8999 10.1836 15.8999 10.6348 15.8999 11.1647V14.8355C15.8999 15.3654 15.8999 15.8166 15.8696 16.187C15.8378 16.5761 15.7682 16.9547 15.5838 17.3167C15.3057 17.8623 14.8621 18.306 14.3164 18.584C13.9545 18.7684 13.5759 18.8381 13.1867 18.8699C12.8163 18.9001 12.3651 18.9001 11.8353 18.9001H4.16445C3.63458 18.9001 3.1834 18.9001 2.81297 18.8699C2.42381 18.8381 2.04522 18.7684 1.68328 18.584C1.13761 18.306 0.693969 17.8623 0.415936 17.3167C0.231522 16.9547 0.161888 16.5761 0.130092 16.187C0.0998268 15.8166 0.0998394 15.3654 0.0998542 14.8355V11.1647C0.0998394 10.6348 0.0998268 10.1836 0.130092 9.81321C0.161888 9.42405 0.231522 9.04546 0.415936 8.68353C0.693969 8.13786 1.13761 7.69421 1.68328 7.41618C2.04522 7.23177 2.42381 7.16213 2.81297 7.13034C3.1834 7.10007 3.63458 7.10008 4.16445 7.1001ZM2.95955 8.92436C2.6817 8.94706 2.56636 8.98642 2.50047 9.01999C2.29349 9.12545 2.12521 9.29373 2.01975 9.50071C1.98617 9.5666 1.94682 9.68194 1.92411 9.95979C1.90055 10.2481 1.89985 10.6252 1.89985 11.2001V14.8001C1.89985 15.375 1.90055 15.7521 1.92411 16.0404C1.94682 16.3183 1.98617 16.4336 2.01975 16.4995C2.12521 16.7065 2.29349 16.8747 2.50047 16.9802C2.56636 17.0138 2.6817 17.0531 2.95955 17.0758C3.2479 17.0994 3.62495 17.1001 4.19985 17.1001H11.7999C12.3748 17.1001 12.7518 17.0994 13.0402 17.0758C13.318 17.0531 13.4334 17.0138 13.4992 16.9802C13.7062 16.8747 13.8745 16.7065 13.98 16.4995C14.0135 16.4336 14.0529 16.3183 14.0756 16.0404C14.0992 15.7521 14.0999 15.375 14.0999 14.8001V11.2001C14.0999 10.6252 14.0992 10.2481 14.0756 9.95979C14.0529 9.68194 14.0135 9.5666 13.98 9.50071C13.8745 9.29373 13.7062 9.12545 13.4992 9.01999C13.4334 8.98642 13.318 8.94706 13.0402 8.92436C12.7518 8.9008 12.3748 8.9001 11.7999 8.9001H4.19985C3.62495 8.9001 3.2479 8.9008 2.95955 8.92436Z" fill="#794CF8"></path>
  <path fill-rule="evenodd" clip-rule="evenodd" d="M7.99986 0.100098C5.01752 0.100098 2.59985 2.51776 2.59985 5.5001V8.0001H4.39986V5.5001C4.39986 3.51187 6.01163 1.9001 7.99986 1.9001C8.88808 1.9001 9.69986 2.21187 10.2999 2.81187V2.0001C10.2999 1.01776 9.28221 0.100098 7.99986 0.100098Z" fill="#794CF8"></path>
</svg>
